<svg xmlns="http://www.w3.org/2000/svg" viewBox="0 0 608 608"><defs><style>.cls-1{fill:#f8b674;}</style></defs><title>worklife-logo</title><g id="Artwork"><path class="cls-1" d="M539.33,193.56h0a61.55,61.55,0,0,0-86.94,0l-17,17a61.3,61.3,0,0,0-98.91-17L304,226l-32.46-32.45a61.3,61.3,0,0,0-98.9,17l-17-17a61.48,61.48,0,0,0-86.94,86.95l133.89,133.9a61.5,61.5,0,0,0,87,0L304,399.9l14.5,14.5a61.47,61.47,0,0,0,86.94,0L539.32,280.51a61.49,61.49,0,0,0,0-86.95Zm-173.92,29a20.5,20.5,0,0,1,29,29L362,284l-29-29ZM260.51,385.42a20.5,20.5,0,0,1-29,0L97.63,251.53a20.49,20.49,0,0,1,29-29L275,370.92ZM510.34,251.53,376.45,385.43a20.48,20.48,0,0,1-29,0L213.57,251.53a20.5,20.5,0,0,1,29-29L347.47,327.45a20.64,20.64,0,0,0,14.61,6c5.48,0,10-2.13,14.62-6L483.42,220.6c6.05-6,19-6,27,2a20.48,20.48,0,0,1-.07,29Z"/></g></svg>