<svg id="Layer_1" data-name="Layer 1" xmlns="http://www.w3.org/2000/svg" xmlns:xlink="http://www.w3.org/1999/xlink" viewBox="0 0 2000 1000"><defs><style>.cls-1{fill:none;}.cls-2{fill:#212841;}.cls-3{clip-path:url(#clip-path);}.cls-4{fill:#fbb578;}.cls-5{clip-path:url(#clip-path-2);}.cls-6{clip-path:url(#clip-path-3);}</style><clipPath id="clip-path"><rect class="cls-1" x="-27" y="211.78" width="234" height="436.22"/></clipPath><clipPath id="clip-path-2"><rect class="cls-1" x="1366" y="386" width="140.01" height="261"/></clipPath><clipPath id="clip-path-3"><rect class="cls-1" x="789.75" y="797" width="217.25" height="405"/></clipPath></defs><title>full-left-triangle</title><polygon class="cls-2" points="0 504.05 59.99 564.04 60.04 564.04 144 648 143.98 648.02 144 648.05 60.04 732.01 59.99 732.01 0 792 0 504.05 0 504.05"/><g class="cls-3"><path class="cls-4" d="M1.29,642.13,198.67,444.74a21,21,0,0,0,0-29.71L1.29,217.65a15,15,0,0,0-25.62,10.61V631.52A15,15,0,0,0,1.29,642.13"/></g><polygon class="cls-2" points="1008 80 1094.46 166.46 1094.53 166.46 1215.53 287.47 1215.5 287.5 1215.53 287.53 1094.53 408.54 1094.46 408.54 1008 495 1008 80 1008 80"/><g class="cls-5"><path class="cls-4" d="M1382.93,643.49,1501,525.39a12.59,12.59,0,0,0,0-17.78l-118.1-118.1a9,9,0,0,0-15.33,6.35V637.14a9,9,0,0,0,15.33,6.35"/></g><g class="cls-6"><path class="cls-4" d="M816,1196.55l183.26-183.26a19.49,19.49,0,0,0,0-27.58L816,802.45a13.93,13.93,0,0,0-23.78,9.85v374.4a13.93,13.93,0,0,0,23.78,9.85"/></g><polygon class="cls-2" points="1891.23 864.06 1977.69 950.51 1977.76 950.51 2098.77 1071.52 2098.73 1071.56 2098.77 1071.59 1977.76 1192.6 1977.69 1192.6 1891.23 1279.06 1891.23 864.06 1891.23 864.06"/></svg>